<svg xmlns="http://www.w3.org/2000/svg" xmlns:xlink="http://www.w3.org/1999/xlink" width="69.76" height="60.95" viewBox="0 0 69.76 60.95">
  <defs>
    <clipPath id="clip-path">
      <rect id="Rectangle_1527" data-name="Rectangle 1527" width="69.76" height="60.95" fill="none"/>
    </clipPath>
  </defs>
  <g id="Group_4048" data-name="Group 4048" clip-path="url(#clip-path)">
    <path id="Path_84554" data-name="Path 84554" d="M198.115,95.47h-4.393a.333.333,0,0,1-.332-.332V85.8a.333.333,0,0,1,.332-.332h4.393a.333.333,0,0,1,.332.332v9.333a.333.333,0,0,1-.332.332" transform="translate(-129.196 -57.101)" fill="#29c3e8"/>
    <path id="Path_84555" data-name="Path 84555" d="M197.181,93.9h-4.468c-.337,0,.178.129.148.262a1.179,1.179,0,0,0,0-.24V84.957a1.056,1.056,0,0,0,0-.275c-.024-.076.158-.2-.141.1-.219.22-.171.122-.054.141a3.466,3.466,0,0,0,.528,0h3.625a1.485,1.485,0,0,0,.354,0c-.272.075-.275-.485-.275-.167v9.289a.593.593,0,0,0,0,.1c.027.15-.289-.159.148-.23a.513.513,0,0,0-.356.627.522.522,0,0,0,.627.356c.57-.093.6-.618.6-1.066v-8.8c0-.406.025-.824-.408-1.05a1.162,1.162,0,0,0-.559-.081h-.736c-1.187,0-2.38-.034-3.566,0a.8.8,0,0,0-.808.89v8.72c0,.221-.014.448,0,.669a.762.762,0,0,0,.768.738c.162.007.325,0,.487,0h4.084a.51.51,0,0,0,0-1.019" transform="translate(-128.158 -56.045)"/>
    <path id="Path_84556" data-name="Path 84556" d="M8.455,130.72H2.206a.666.666,0,0,1-.664-.664V118.981a.666.666,0,0,1,.664-.664H8.455a.666.666,0,0,1,.664.664v11.075a.666.666,0,0,1-.664.664" transform="translate(-1.03 -79.043)" fill="#29c3e8"/>
    <path id="Path_84557" data-name="Path 84557" d="M7.635,129.17H1.574c-.185,0-.374-.01-.559,0-.062,0-.052-.006-.01.016.026.013.012.068.016,0,.023-.351,0-.711,0-1.063V118.062a1.03,1.03,0,0,0,0-.311c-.027-.065.011.089-.057.036.014.011.069,0,.088,0,.206.019.421,0,.628,0h5.7a1.192,1.192,0,0,0,.2,0c.1-.018.012,0,.024-.007-.047.049.007-.11-.019-.013a.648.648,0,0,0,0,.15V129.1a.37.37,0,0,0,0,.1c.016.042-.006-.028.057-.033a.523.523,0,0,0-.51.51.514.514,0,0,0,.51.51A.993.993,0,0,0,8.6,129.2c0-.122,0-.245,0-.367V117.872a1.029,1.029,0,0,0-1.081-1.1H5.623c-1.521,0-3.042-.016-4.563,0a1.01,1.01,0,0,0-1.017.684A1.506,1.506,0,0,0,0,117.9v10.962c0,.115,0,.231,0,.346a.988.988,0,0,0,.966.981c.46.022.926,0,1.386,0H7.635a.51.51,0,0,0,0-1.019" transform="translate(0 -78.003)"/>
    <path id="Path_84558" data-name="Path 84558" d="M100.508,17.542H96.544a.333.333,0,0,1-.332-.332V13.246a.333.333,0,0,1,.332-.332h3.964a.333.333,0,0,1,.332.332V17.21a.333.333,0,0,1-.332.332" transform="translate(-64.276 -8.627)" fill="#29c3e8"/>
    <path id="Path_84559" data-name="Path 84559" d="M99.582,15.979H95.577c-.019,0-.149-.016-.164,0,.058-.062.334.222.277.275.007-.006,0-.047,0-.056a2.548,2.548,0,0,0,0-.267V12.689a3.108,3.108,0,0,0,0-.578c0-.006,0-.012,0-.018.041.141-.086.2-.182.236-.22.091-.105.03-.068.041a.888.888,0,0,0,.224,0h3.2a4.512,4.512,0,0,0,.67,0c.008,0,.041.005.046,0-.062.068-.318-.223-.277-.273-.019.024,0,.151,0,.179V14.29c0,.624-.033,1.258,0,1.881a.258.258,0,0,0,0,.068c.028.064.058-.229.148-.241a.513.513,0,0,0-.356.627.523.523,0,0,0,.627.356.744.744,0,0,0,.6-.727c0-.063,0-.128,0-.192V12.656c0-.186.01-.376,0-.562a.781.781,0,0,0-.859-.743H97.333c-.631,0-1.269-.03-1.9,0a.77.77,0,0,0-.764.8c-.005.256,0,.513,0,.769v2.49c0,.26-.006.521,0,.781a.771.771,0,0,0,.764.807c.622.03,1.253,0,1.876,0h2.271a.51.51,0,0,0,0-1.019" transform="translate(-63.244 -7.574)"/>
    <path id="Path_84560" data-name="Path 84560" d="M72.044,14.132C71.9,12.239,71.35,10.2,69.8,9.1s-4.246-.527-4.594,1.339A6,6,0,0,0,62.07,5.995a3.718,3.718,0,0,0-4.836,1.567c-.6-1.227-1.38-2.6-2.724-2.837a2.963,2.963,0,0,0-2.872,1.564c-.588.985-.539,2.6-.691,3.741-5.8,2.579-25.659,11.89-29.826,14.194A8.61,8.61,0,0,0,17.882,26.8a8.386,8.386,0,0,0-.99,4.641c.027,11.063.141,19.38.921,32.148,8.88-1.307,18.023-2.8,26.849-4.428,10.5-1.935,20.964-4.1,31.452-6.109,1.262-.243,2.076-2.146,2.082-3.432q.067-14.517.133-29.034l-.366-.157c2.535-7.339-4.733-9.808-5.922-6.294" transform="translate(-11.285 -3.136)"/>
    <path id="Path_84561" data-name="Path 84561" d="M71.514,13.1a7.522,7.522,0,0,0-2.008-5.084,3.9,3.9,0,0,0-4.359-.6,2.724,2.724,0,0,0-1.47,1.858h.983a6.855,6.855,0,0,0-2.628-4.323,4.559,4.559,0,0,0-4.512-.4,3.56,3.56,0,0,0-1.766,1.727h.88C55.955,4.882,55,3.3,53.286,3.163A3.668,3.668,0,0,0,49.72,6.187c-.2.926-.2,1.878-.321,2.815l.253-.44c-3.266,1.452-6.5,2.968-9.742,4.48q-6.245,2.918-12.458,5.905c-1.669.805-3.335,1.616-4.992,2.445a38.575,38.575,0,0,0-4.016,2.18,6.248,6.248,0,0,0-2.775,3.636,18.216,18.216,0,0,0-.321,4.775c.01,3.033.03,6.066.077,9.1q.144,9.373.678,18.732.078,1.373.162,2.745a.52.52,0,0,0,.645.492q9.144-1.347,18.255-2.9c6.1-1.045,12.189-2.181,18.266-3.363,6.142-1.194,12.277-2.426,18.419-3.622l2.281-.442a4.889,4.889,0,0,0,1.775-.5,4.253,4.253,0,0,0,1.649-2.688,8.711,8.711,0,0,0,.117-1.805q0-1.164.011-2.328.011-2.358.022-4.716.043-9.4.086-18.8.005-1.164.011-2.328a.5.5,0,0,0-.253-.44l-.365-.157.234.576c.77-2.258.857-4.89-.723-6.828a4.251,4.251,0,0,0-4.371-1.543,2.815,2.815,0,0,0-1.812,1.805c-.216.621.769.888.983.271q.021-.062.045-.122c-.043.112.008-.017.016-.034.037-.074.074-.146.117-.217s.072-.112.111-.165c-.07.1.088-.1.122-.132.049-.049.1-.1.154-.141.023-.02.1-.069,0,0,.031-.022.061-.045.093-.064.064-.039.128-.079.195-.114l.1-.05c.1-.046-.091.032.018-.007a3.388,3.388,0,0,1,.444-.124l.077-.013c.131-.023-.113.008.021,0,.093-.007.186-.014.279-.015q.1,0,.2.006c.04,0,.28.03.153.011a3.681,3.681,0,0,1,.5.111q.126.037.249.083c.041.016.083.032.124.049-.089-.037-.016-.006,0,0a4.356,4.356,0,0,1,.523.284,3.558,3.558,0,0,1,.78.671,4.538,4.538,0,0,1,1.036,2.2,7.669,7.669,0,0,1-.427,3.814.51.51,0,0,0,.234.576l.365.157-.253-.44L76.7,38.175q-.021,4.655-.042,9.31a8.678,8.678,0,0,1-.081,1.779,4.324,4.324,0,0,1-.525,1.349,2,2,0,0,1-.875.85,5.049,5.049,0,0,1-.952.2l-1.141.22c-6.063,1.174-12.118,2.389-18.179,3.574-6.027,1.179-12.061,2.323-18.112,3.376q-8.94,1.555-17.915,2.9-1.117.168-2.235.332l.645.491q-.348-5.7-.575-11.415-.192-5.029-.266-10.062c-.052-3.4-.071-6.8-.08-10.195,0-1.708-.012-3.575,1.031-5.024a9.206,9.206,0,0,1,3.289-2.413c1.412-.757,2.853-1.461,4.291-2.167q3.157-1.549,6.334-3.058,3.533-1.686,7.078-3.348,3.31-1.553,6.629-3.087c1.624-.75,3.248-1.5,4.881-2.227.315-.141.486-.258.532-.643s.07-.753.1-1.13a5.416,5.416,0,0,1,.489-2.236A2.73,2.73,0,0,1,52.782,4.2a1.988,1.988,0,0,1,1.828.736A7.568,7.568,0,0,1,55.755,6.79a.513.513,0,0,0,.88,0,3.188,3.188,0,0,1,3.931-1.462c1.773.6,2.773,2.493,3.111,4.217a.514.514,0,0,0,.983,0,2.222,2.222,0,0,1,2.514-1.512,3.488,3.488,0,0,1,2.777,2.475,9.352,9.352,0,0,1,.543,2.594c.051.65,1.071.655,1.019,0" transform="translate(-10.246 -2.107)"/>
    <path id="Path_84562" data-name="Path 84562" d="M14.867,31.788a8.613,8.613,0,0,0-3.239,2.573A8.386,8.386,0,0,0,10.638,39c.027,11.062.141,19.38.921,32.148,8.88-1.307,18.023-2.8,26.849-4.428,10.5-1.935,20.964-4.1,31.453-6.11,1.262-.242,2.076-2.146,2.082-3.431q.067-14.517.133-29.034c-10.2-4.417-18.092-7.392-27.358-10.564-5.773,2.564-25.678,11.9-29.852,14.206" transform="translate(-7.107 -11.746)" fill="#ed218c"/>
    <path id="Path_84563" data-name="Path 84563" d="M71.99,66.087c.06,7.434.144,14.868.181,22.3.014,2.925-1.771,4.576-2.229,4.684-20.955,4.932-37.489,7.14-58.2,10.486-.6-10.069-.957-28.664-.945-29.021l29.264-4.045a13.343,13.343,0,0,0,.737,5.918,3.333,3.333,0,0,0,.786,1.386,1.371,1.371,0,0,0,1.48.316,1.774,1.774,0,0,0,.8-1.142,5.789,5.789,0,0,0,.249-1.79,2.536,2.536,0,0,1,.069-.908.673.673,0,0,1,.689-.484c.29.053.457.347.651.568a1.474,1.474,0,0,0,1.567.451c.839-.311,1.084-1.358,1.208-2.245q.236-1.7.473-3.4c7.811-.936,15.409-2.138,23.22-3.074" transform="translate(-7.215 -44.15)" fill="#faed24"/>
    <path id="Path_84564" data-name="Path 84564" d="M13.554,30.355a9.789,9.789,0,0,0-3.192,2.433,7.041,7.041,0,0,0-1.247,3.827c-.1,1.359-.039,2.736-.033,4.1q.008,1.973.025,3.946c.045,5.175.156,10.35.37,15.52q.207,4.991.517,9.977a.52.52,0,0,0,.645.492q9.144-1.347,18.255-2.9C35,66.7,41.083,65.565,47.16,64.383c6.143-1.194,12.277-2.427,18.419-3.622l2.281-.442a4.9,4.9,0,0,0,1.775-.5,4.252,4.252,0,0,0,1.649-2.688,8.707,8.707,0,0,0,.117-1.8q0-1.164.011-2.328.011-2.358.022-4.717.043-9.4.086-18.8.005-1.164.011-2.328a.5.5,0,0,0-.253-.44c-5.377-2.327-10.8-4.548-16.283-6.61q-3.823-1.438-7.68-2.787-1-.35-2-.7l-.961-.331c-.152-.052-.3-.113-.458-.157a.72.72,0,0,0-.56.045c-.506.222-1.009.452-1.513.68-3.081,1.4-6.147,2.825-9.211,4.26Q27.2,23.657,21.8,26.247c-2.59,1.247-5.193,2.482-7.733,3.83q-.259.137-.515.278c-.575.317-.061,1.2.515.88,1.32-.728,2.678-1.39,4.029-2.056q3.122-1.539,6.266-3.034,3.607-1.725,7.227-3.423,3.393-1.594,6.794-3.168c1.694-.783,3.389-1.564,5.092-2.327l.444-.2-.393.051q5.211,1.785,10.375,3.7,5.273,1.968,10.476,4.115,3.2,1.321,6.384,2.7l-.253-.44-.086,18.621q-.021,4.655-.042,9.311a8.675,8.675,0,0,1-.081,1.779,4.319,4.319,0,0,1-.525,1.348,2,2,0,0,1-.875.85,5.024,5.024,0,0,1-.952.2l-1.141.22c-6.063,1.174-12.118,2.389-18.179,3.574C42.6,64.24,36.568,65.384,30.518,66.437q-8.939,1.555-17.915,2.9-1.117.167-2.235.332l.645.492c-.338-5.534-.6-11.073-.741-16.616-.131-5.088-.167-10.178-.18-15.267a8.951,8.951,0,0,1,.712-4.3,7.517,7.517,0,0,1,3.264-2.74c.574-.318.06-1.2-.515-.88" transform="translate(-6.051 -10.754)"/>
    <path id="Path_84565" data-name="Path 84565" d="M10.96,57.006c1.463-.222,2.927-.429,4.392-.633,1.938-.269,3.839-.525,5.735-.778q3.438-.459,6.877-.906,3.737-.487,7.474-.969l7.708-.991,7.549-.97q3.5-.451,7-.9,3.04-.4,6.078-.8,2.4-.32,4.807-.652c1-.14,2-.279,2.994-.443q.213-.035.426-.073a.514.514,0,0,0,.356-.627.521.521,0,0,0-.627-.356c-.833.152-1.672.268-2.51.387q-.981.141-1.964.275l-1.138.155-.617.083-.305.041-.055.007-.169.023q-2.9.389-5.808.767-3.409.445-6.818.883-3.729.481-7.459.959l-7.707.991q-3.781.487-7.562.978-3.528.459-7.055.925-3.087.409-6.171.83-2.389.328-4.776.675l-.925.138a.513.513,0,0,0-.356.627.523.523,0,0,0,.627.356" transform="translate(-6.893 -31.997)"/>
    <path id="Path_84566" data-name="Path 84566" d="M123.5,68.63q6.139-.789,12.276-1.589c2.927-.384,5.855-.767,8.778-1.185.84-.12,1.682-.236,2.517-.388a.515.515,0,0,0,.356-.627.521.521,0,0,0-.627-.356c-1.881.343-3.787.571-5.681.828q-5.22.708-10.447,1.374-3.585.464-7.17.924a.526.526,0,0,0-.51.51.513.513,0,0,0,.51.51" transform="translate(-82.165 -43.072)"/>
    <path id="Path_84567" data-name="Path 84567" d="M10.356,82.172c2.9-.44,5.807-.832,8.714-1.222q6.135-.824,12.275-1.612,3.828-.5,7.657-.988a.526.526,0,0,0,.51-.51.512.512,0,0,0-.51-.51q-6.691.86-13.38,1.732-5.572.73-11.14,1.493c-1.467.2-2.933.411-4.4.633a.513.513,0,0,0-.356.627.523.523,0,0,0,.627.356" transform="translate(-6.489 -51.66)"/>
    <path id="Path_84568" data-name="Path 84568" d="M97.273,72.867q.253,2.985.755,5.943a4.409,4.409,0,0,0,.924,2.426,1.9,1.9,0,0,0,2.152.483,2.272,2.272,0,0,0,1.074-1.793c.069-.441.1-.887.15-1.33q.036-.354.073-.706a1.858,1.858,0,0,1,.03-.227c.02-.086.046-.084-.027-.071.283-.053.516.346.659.526a1.85,1.85,0,0,0,.933.69,1.955,1.955,0,0,0,2.04-.868,5.028,5.028,0,0,0,.5-2.891q0-1.7.005-3.4a.51.51,0,0,0-1.02,0q0,1.4,0,2.791a10.026,10.026,0,0,1-.1,2.4c-.121.478-.579,1.184-1.18.975-.241-.084-.4-.359-.55-.549a1.755,1.755,0,0,0-.918-.654,1.07,1.07,0,0,0-1.041.256,1.954,1.954,0,0,0-.364,1.238,9.657,9.657,0,0,1-.3,2.151.716.716,0,0,1-1.073.495c-.652-.342-.791-1.191-.908-1.845-.358-2-.611-4.018-.782-6.041a.523.523,0,0,0-.51-.51.514.514,0,0,0-.51.51" transform="translate(-64.984 -47.534)"/>
    <path id="Path_84569" data-name="Path 84569" d="M10.848,102.4c1.254-1.576,3.7-1.209,5.4-.751a13.67,13.67,0,0,0,4.007.743,6.246,6.246,0,0,0,3.018-.985c1.61-.978,3.13-2.644,5.116-2.771a8.25,8.25,0,0,1,3.253.687,11.948,11.948,0,0,0,3.25.835c2.058.127,3.777-1.081,5.406-2.171a11.06,11.06,0,0,1,2.489-1.372,4.724,4.724,0,0,1,3.065.051,15.572,15.572,0,0,0,3.651.929,8.354,8.354,0,0,0,3.6-.564,13.206,13.206,0,0,0,2.929-1.784,7.562,7.562,0,0,1,2.785-1.5,6.284,6.284,0,0,1,3.189.439,8.94,8.94,0,0,0,3.28.638,4.6,4.6,0,0,0,2.7-1.22,17.434,17.434,0,0,1,1.995-1.741,2.523,2.523,0,0,1,1.091-.4.524.524,0,0,0,.51-.51.513.513,0,0,0-.51-.51,4.362,4.362,0,0,0-2.506,1.229A12.882,12.882,0,0,1,66.5,93.428,3.779,3.779,0,0,1,63.6,93.6a27.968,27.968,0,0,0-3.337-.9,5.171,5.171,0,0,0-3.218.639c-.979.534-1.823,1.275-2.745,1.895a7.732,7.732,0,0,1-3.269,1.285,7.905,7.905,0,0,1-3.637-.409,8.9,8.9,0,0,0-3.571-.761,6.761,6.761,0,0,0-2.727.921c-1.66.935-3.148,2.378-5.059,2.784-2.2.467-4.248-1.024-6.362-1.365a5.483,5.483,0,0,0-3.17.4,14.585,14.585,0,0,0-2.557,1.619,9.258,9.258,0,0,1-2.576,1.462,6.717,6.717,0,0,1-3.756-.209c-2.066-.554-4.327-1.2-6.373-.187a3.336,3.336,0,0,0-1.122.9.526.526,0,0,0,0,.721.514.514,0,0,0,.721,0" transform="translate(-6.67 -60.421)"/>
    <path id="Path_84570" data-name="Path 84570" d="M12.3,130.675c1.254-1.576,3.7-1.209,5.4-.751a13.667,13.667,0,0,0,4.007.743,6.246,6.246,0,0,0,3.018-.985c1.61-.978,3.13-2.644,5.116-2.771a8.25,8.25,0,0,1,3.253.687,11.946,11.946,0,0,0,3.25.835c2.058.127,3.777-1.081,5.406-2.171a11.062,11.062,0,0,1,2.489-1.372,4.724,4.724,0,0,1,3.065.051,15.574,15.574,0,0,0,3.651.929,8.354,8.354,0,0,0,3.6-.564,13.2,13.2,0,0,0,2.929-1.784,7.562,7.562,0,0,1,2.785-1.5,6.284,6.284,0,0,1,3.189.439,8.94,8.94,0,0,0,3.28.638,4.6,4.6,0,0,0,2.7-1.22,17.435,17.435,0,0,1,1.995-1.741,2.522,2.522,0,0,1,1.091-.4.524.524,0,0,0,.51-.51.513.513,0,0,0-.51-.51,4.362,4.362,0,0,0-2.506,1.229,12.882,12.882,0,0,1-2.065,1.755,3.779,3.779,0,0,1-2.891.175,27.967,27.967,0,0,0-3.337-.9,5.171,5.171,0,0,0-3.218.639c-.979.534-1.823,1.275-2.745,1.895a7.733,7.733,0,0,1-3.269,1.285,7.906,7.906,0,0,1-3.637-.409,8.9,8.9,0,0,0-3.571-.761,6.762,6.762,0,0,0-2.727.921c-1.66.935-3.148,2.378-5.059,2.784-2.2.467-4.248-1.024-6.362-1.365a5.483,5.483,0,0,0-3.17.4,14.584,14.584,0,0,0-2.557,1.619,9.259,9.259,0,0,1-2.576,1.462,6.718,6.718,0,0,1-3.756-.209c-2.066-.554-4.327-1.2-6.373-.187a3.335,3.335,0,0,0-1.122.9.526.526,0,0,0,0,.721.514.514,0,0,0,.721,0" transform="translate(-7.64 -79.313)"/>
    <path id="Path_84571" data-name="Path 84571" d="M140.233,17.3c2.563-7.361-4.723-9.839-5.913-6.321-.142-1.893-.693-3.933-2.241-5.032s-4.246-.527-4.594,1.339a6,6,0,0,0-3.138-4.444,3.718,3.718,0,0,0-4.836,1.567c-.6-1.227-1.38-2.6-2.724-2.837a2.962,2.962,0,0,0-2.871,1.564c-.594,1-.538,2.631-.7,3.779C127,11.841,130.238,13.056,140.233,17.3" transform="translate(-75.638 -1.028)" fill="#ed218c"/>
    <path id="Path_84572" data-name="Path 84572" d="M139.693,16.406c.777-2.258.873-4.9-.7-6.842A4.253,4.253,0,0,0,134.6,8.01a2.814,2.814,0,0,0-1.806,1.8l1,.135a7.526,7.526,0,0,0-2-5.081,3.9,3.9,0,0,0-4.351-.611,2.725,2.725,0,0,0-1.482,1.863h.983A6.843,6.843,0,0,0,124.3,1.785a4.56,4.56,0,0,0-4.491-.391,3.558,3.558,0,0,0-1.768,1.728h.88C118.231,1.711,117.251.1,115.5,0a3.693,3.693,0,0,0-3.511,3.078c-.192.924-.192,1.871-.315,2.8a.515.515,0,0,0,.374.491c4.112,1.471,8.226,2.937,12.317,4.464q4.457,1.664,8.857,3.473,2.866,1.18,5.718,2.4a.528.528,0,0,0,.7-.183.513.513,0,0,0-.183-.7c-3.234-1.373-6.474-2.735-9.742-4.026-3.191-1.261-6.41-2.451-9.635-3.621q-3.875-1.406-7.758-2.789l.374.492c.166-1.257.009-2.785.84-3.839a2.559,2.559,0,0,1,1.677-1.019,1.988,1.988,0,0,1,1.609.683,7.265,7.265,0,0,1,1.216,1.925.513.513,0,0,0,.88,0,3.023,3.023,0,0,1,2.911-1.644,4.068,4.068,0,0,1,3.241,2.072,6.854,6.854,0,0,1,.89,2.327.514.514,0,0,0,.983,0,2.212,2.212,0,0,1,2.5-1.513,3.488,3.488,0,0,1,2.789,2.47,9.3,9.3,0,0,1,.545,2.6.512.512,0,0,0,1,.135c.013-.038.027-.075.041-.113.035-.093-.033.065.01-.022s.079-.158.125-.234.079-.123.123-.182c-.076.1.06-.066.094-.1.053-.055.11-.1.167-.156s-.071.048.006-.006c.033-.023.066-.047.1-.069.058-.038.118-.073.18-.105l.094-.046c.1-.055-.075.021.039-.017a3.783,3.783,0,0,1,.426-.12c.035-.007.071-.012.107-.018-.085.014-.052,0,.009,0,.086-.006.171-.013.257-.014s.15,0,.225.006l.113.009.057.006c.073.007-.095-.015-.021,0a3.873,3.873,0,0,1,.5.11c.077.023.154.048.23.076l.133.052c-.094-.038.014.007.048.023a4.324,4.324,0,0,1,.464.253c.08.05.157.1.233.158s.017.011.037.027c.04.032.081.065.12.1a4.43,4.43,0,0,1,.423.412,2.581,2.581,0,0,1,.313.4,4.8,4.8,0,0,1,.322.557c.023.046.044.092.065.139l.032.071c0-.011-.024-.057,0,0,.047.115.089.232.127.35a5.474,5.474,0,0,1,.171.674,7.791,7.791,0,0,1-.436,3.838c-.214.622.771.889.983.271" transform="translate(-74.606 0)"/>
    <path id="Path_84573" data-name="Path 84573" d="M66.846,31.843q6.05-2.594,11.9-5.628c.583-.3.068-1.182-.515-.88q-5.843,3.031-11.9,5.628a.513.513,0,0,0-.183.7.523.523,0,0,0,.7.183" transform="translate(-44.148 -16.884)" fill="#fff"/>
    <path id="Path_84574" data-name="Path 84574" d="M55.54,47.715l-.109.109a.524.524,0,0,0,0,.721l.1.08a.508.508,0,0,0,.258.07l.135-.018a.509.509,0,0,0,.225-.131l.109-.109a.525.525,0,0,0,0-.721l-.1-.08a.508.508,0,0,0-.257-.07l-.135.018a.512.512,0,0,0-.225.131" transform="translate(-36.931 -31.777)" fill="#fff"/>
    <path id="Path_84575" data-name="Path 84575" d="M119.639,80.121a22.564,22.564,0,0,1,.059-3.164.512.512,0,0,0-.51-.51.523.523,0,0,0-.51.51,22.522,22.522,0,0,0-.058,3.164.51.51,0,1,0,1.019,0" transform="translate(-79.225 -51.072)" fill="#fff"/>
    <path id="Path_84576" data-name="Path 84576" d="M157.673,56.015q4.628-.84,9.273-1.584a.514.514,0,0,0,.356-.627.522.522,0,0,0-.627-.356q-4.645.743-9.274,1.584a.514.514,0,0,0-.356.627.521.521,0,0,0,.627.356" transform="translate(-104.906 -35.701)" fill="#fff"/>
    <path id="Path_84577" data-name="Path 84577" d="M134.891,8.226a2,2,0,0,0-.625.439,2.368,2.368,0,0,0-.273.344,2.284,2.284,0,0,0-.2.4.385.385,0,0,0-.009.2.379.379,0,0,0,.06.19.51.51,0,0,0,.7.183l.1-.08a.51.51,0,0,0,.131-.225l.01-.025-.051.122a1.666,1.666,0,0,1,.2-.347l-.08.1a1.69,1.69,0,0,1,.3-.3l-.1.08a1.635,1.635,0,0,1,.346-.2.569.569,0,0,0,.234-.3.522.522,0,0,0-.051-.393.514.514,0,0,0-.3-.234l-.135-.018a.508.508,0,0,0-.257.07" transform="translate(-89.371 -5.449)" fill="#fff"/>
    <path id="Path_84578" data-name="Path 84578" d="M158.851,15.454a3.271,3.271,0,0,0-1.05,1.168.54.54,0,0,0-.051.393.519.519,0,0,0,.234.3.51.51,0,0,0,.7-.183,2.8,2.8,0,0,1,.26-.408l-.08.1a2.786,2.786,0,0,1,.49-.491l-.1.08c.039-.03.078-.058.117-.086a.545.545,0,0,0,.234-.3.522.522,0,0,0-.051-.393.514.514,0,0,0-.3-.234.5.5,0,0,0-.393.051" transform="translate(-105.375 -10.279)" fill="#fff"/>
    <path id="Path_84579" data-name="Path 84579" d="M178.985,27.582a2.837,2.837,0,0,0-1.155,1.176.539.539,0,0,0-.051.393.519.519,0,0,0,.235.3.51.51,0,0,0,.7-.183,2.421,2.421,0,0,1,.229-.361l-.08.1a2.415,2.415,0,0,1,.424-.425l-.1.08a2.444,2.444,0,0,1,.319-.207.51.51,0,1,0-.514-.88" transform="translate(-118.755 -18.383)" fill="#fff"/>
    <path id="Path_84580" data-name="Path 84580" d="M117.981,153.946q2.727-.426,5.459-.811a.513.513,0,0,0,.356-.627.523.523,0,0,0-.627-.356q-2.733.382-5.459.811a.513.513,0,0,0-.356.627.522.522,0,0,0,.627.356" transform="translate(-78.389 -101.641)" fill="#fff"/>
    <path id="Path_84581" data-name="Path 84581" d="M24.127,162.442c6.717-.988,13.4-2.223,20.083-3.387q3.031-.528,6.066-1.037a.513.513,0,0,0,.356-.627.522.522,0,0,0-.627-.356c-6.978,1.165-13.935,2.457-20.916,3.605q-2.613.43-5.233.819a.513.513,0,0,0-.356.627.523.523,0,0,0,.627.356" transform="translate(-15.689 -104.902)" fill="#fff"/>
    <path id="Path_84582" data-name="Path 84582" d="M43.338,76.47H37.089a.666.666,0,0,1-.664-.664V64.731a.666.666,0,0,1,.664-.664h6.249a.666.666,0,0,1,.664.664V75.806a.666.666,0,0,1-.664.664" transform="translate(-24.334 -42.801)" fill="#29c3e8"/>
    <path id="Path_84583" data-name="Path 84583" d="M42.518,74.92H36.457c-.185,0-.374-.01-.559,0-.062,0-.052-.006-.01.016.026.013.012.068.016,0,.023-.351,0-.711,0-1.063V63.812a1.031,1.031,0,0,0,0-.311c-.027-.065.011.089-.057.036.014.011.069,0,.088,0,.206.019.421,0,.628,0h5.7a1.193,1.193,0,0,0,.2,0c.1-.018.013,0,.024-.007-.047.049.007-.11-.019-.013a.648.648,0,0,0,0,.15V74.848a.37.37,0,0,0,0,.1c.016.042-.006-.028.057-.033a.523.523,0,0,0-.51.51.514.514,0,0,0,.51.51.993.993,0,0,0,.963-.992c0-.122,0-.245,0-.367V63.622a1.029,1.029,0,0,0-1.081-1.1H40.507c-1.521,0-3.042-.015-4.563,0a1.01,1.01,0,0,0-1.017.684,1.506,1.506,0,0,0-.041.449V74.613c0,.115,0,.231,0,.346a.988.988,0,0,0,.966.981c.46.022.926,0,1.386,0h5.281a.51.51,0,0,0,0-1.019" transform="translate(-23.304 -41.761)"/>
    <path id="Path_84584" data-name="Path 84584" d="M75.5,55.666H71.289A.666.666,0,0,1,70.625,55V49.277a.666.666,0,0,1,.664-.664H75.5a.666.666,0,0,1,.664.664V55a.666.666,0,0,1-.664.664" transform="translate(-47.182 -32.476)" fill="#29c3e8"/>
    <path id="Path_84585" data-name="Path 84585" d="M74.657,54.111H71.029a6.566,6.566,0,0,0-.949,0c-.124.019.046-.012,0,.054.019-.028,0-.141,0-.174V48.218c0-.04.021-.155,0-.191.029.049-.112.044-.013.05s.222,0,.332,0h4.057c.035,0,.173.023.2,0-.068.053-.033-.128-.056,0a4.82,4.82,0,0,0,0,.786V53.28a6.209,6.209,0,0,0,0,.821c.016.113-.025.017.057.01a.523.523,0,0,0-.51.51.514.514,0,0,0,.51.51,1.018,1.018,0,0,0,.963-1.109V48.381a1.366,1.366,0,0,0-.237-.988,1.315,1.315,0,0,0-1.118-.335H72.79c-.9,0-1.812-.021-2.717,0a.993.993,0,0,0-1.012,1c-.008.276,0,.553,0,.829v3.262c0,.67-.033,1.349,0,2.018a1.022,1.022,0,0,0,1.141.963h4.456a.51.51,0,0,0,0-1.019" transform="translate(-46.127 -31.431)"/>
    <path id="Path_84586" data-name="Path 84586" d="M131.733,147.662H126.45a.333.333,0,0,1-.332-.332v-11.7a.333.333,0,0,1,.332-.332h5.283a.333.333,0,0,1,.332.332v11.7a.333.333,0,0,1-.332.332" transform="translate(-84.255 -90.385)" fill="#29c3e8"/>
    <path id="Path_84587" data-name="Path 84587" d="M130.8,146.078H127.11c-.566,0-1.152-.046-1.716,0a.49.49,0,0,0-.07,0c-.175.04.684-.975.265.283a.382.382,0,0,0,0-.058,2.887,2.887,0,0,0,0-.347V134.831a1.282,1.282,0,0,0,0-.342c-.026-.077.157-.2-.141.1-.206.207-.168.127-.037.142a6.765,6.765,0,0,0,.691,0h4.362c.082,0,.166.006.248,0a.631.631,0,0,0,.07,0c.159-.036-.4.151-.264-.282a.746.746,0,0,0,0,.194V146.2a.765.765,0,0,0,0,.123c.028.161-.244-.159.148-.223a.513.513,0,0,0-.356.627.522.522,0,0,0,.627.356c.636-.1.6-.716.6-1.194V135.048c0-.353.067-.817-.193-1.1-.352-.378-1.135-.242-1.6-.242-1.449,0-2.9-.031-4.349,0a.773.773,0,0,0-.825.738c0,.069,0,.141,0,.21V145.4c0,.31-.015.624,0,.934a.759.759,0,0,0,.755.759c.175.009.353,0,.528,0H130.8a.51.51,0,0,0,0-1.019" transform="translate(-83.215 -89.311)"/>
    <path id="Path_84588" data-name="Path 84588" d="M99.874,137.731h-2.79a.333.333,0,0,1-.332-.332V131.01a.333.333,0,0,1,.332-.332h2.79a.333.333,0,0,1,.332.332V137.4a.333.333,0,0,1-.332.332" transform="translate(-64.636 -87.301)" fill="#29c3e8"/>
    <path id="Path_84589" data-name="Path 84589" d="M98.944,136.166H96.893a4.9,4.9,0,0,0-.915,0c-.171.035.213.421.249.252a1.065,1.065,0,0,0,0-.208V130.4a1.679,1.679,0,0,0,0-.525c-.027-.06.286-.309-.141.119-.294.294-.174.113-.094.141a1.369,1.369,0,0,0,.379,0H98.79a.638.638,0,0,0,.121,0c.188-.038-.4.232-.249-.281a.461.461,0,0,0,0,.117v6.36c0,.278-.023-.118.148-.145a.513.513,0,0,0-.356.627.522.522,0,0,0,.627.356c.782-.127.6-1.194.6-1.76v-5.246a1.252,1.252,0,0,0-.114-.7c-.248-.394-.694-.346-1.091-.346-.826,0-1.659-.033-2.484,0a.773.773,0,0,0-.784.8c-.008.232,0,.466,0,.7v5.308c0,.173-.01.35,0,.523a.752.752,0,0,0,.6.726,1.638,1.638,0,0,0,.333.018h2.8a.51.51,0,0,0,0-1.019" transform="translate(-63.602 -86.246)"/>
    <path id="Path_84590" data-name="Path 84590" d="M165.636,71.889H160.9a.333.333,0,0,1-.332-.332V65.168a.333.333,0,0,1,.332-.332h4.732a.333.333,0,0,1,.332.332v6.389a.333.333,0,0,1-.332.332" transform="translate(-107.272 -43.314)" fill="#29c3e8"/>
    <path id="Path_84591" data-name="Path 84591" d="M164.677,70.319H159.85c-.316,0,.234.028.166.273a.837.837,0,0,0,0-.2V64.3a1,1,0,0,0,0-.259c-.025-.076.159-.2-.141.1-.256.256-.179.119-.089.141a1.61,1.61,0,0,0,.351,0H164.4c.053,0,.222.03.268,0s-.273-.268-.27-.273c-.01.015,0,.06,0,.079a5.8,5.8,0,0,0,0,.848v5.525a.574.574,0,0,0,0,.1c.028.15-.294-.158.148-.229a.513.513,0,0,0-.356.627.522.522,0,0,0,.627.356c.529-.086.6-.573.6-1V64.368c0-.37.022-.756-.345-.988a1.886,1.886,0,0,0-.972-.114h-1.58c-.909,0-1.827-.037-2.735,0a.785.785,0,0,0-.783.848c0,.332,0,.663,0,.994v3.412c0,.689-.043,1.392,0,2.08a.759.759,0,0,0,.747.738c.09.005.181,0,.271,0h4.661a.51.51,0,0,0,0-1.019" transform="translate(-106.207 -42.255)"/>
    <path id="Path_84592" data-name="Path 84592" d="M176.589,15.7h-6.913a.333.333,0,0,1-.332-.332v-7.6a.333.333,0,0,1,.332-.332h6.913a.333.333,0,0,1,.332.332v7.6a.333.333,0,0,1-.332.332" transform="translate(-113.133 -4.972)" fill="#29c3e8"/>
    <path id="Path_84593" data-name="Path 84593" d="M175.665,14.129h-6.987a.578.578,0,0,0-.115,0c-.154.035.225.409.262.27a1.209,1.209,0,0,0,0-.277v-7.1a1.688,1.688,0,0,0,0-.364c-.022-.089.115-.167-.141.089-.238.238-.177.121-.078.141a2.2,2.2,0,0,0,.418,0h6.3a1.5,1.5,0,0,0,.323,0c-.163.04-.265-.479-.265-.166v7.5a1.04,1.04,0,0,0,0,.132c.023.177-.166-.161.148-.212a.513.513,0,0,0-.356.627.522.522,0,0,0,.627.356c.63-.1.6-.714.6-1.191V7.922c0-.409.008-.819,0-1.228a.8.8,0,0,0-.345-.711.976.976,0,0,0-.554-.114h-3.6c-1.1,0-2.215-.043-3.317,0a.765.765,0,0,0-.783.737c0,.067,0,.137,0,.2v7.312c0,.095-.006.191,0,.285a.76.76,0,0,0,.757.741c1.043.053,2.1,0,3.145,0h3.957a.51.51,0,0,0,0-1.019" transform="translate(-112.102 -3.908)"/>
  </g>
</svg>
