<svg xmlns="http://www.w3.org/2000/svg" width="24" height="28.235" viewBox="0 0 24 28.235">
  <path id="contact_support_FILL1_wght400_GRAD0_opsz48" d="M133.941,204.235l-.353-3.882h-1.412a12.177,12.177,0,1,1,4.712-23.453,11.281,11.281,0,0,1,3.724,2.524,11.769,11.769,0,0,1,2.488,3.829,12.634,12.634,0,0,1,.9,4.818,17.357,17.357,0,0,1-2.665,9.124A19.717,19.717,0,0,1,133.941,204.235Zm-1.694-7.871a1.326,1.326,0,1,0-.953-.388A1.3,1.3,0,0,0,132.247,196.365Zm-.071-4.8a.877.877,0,0,0,.618-.247,1.115,1.115,0,0,0,.335-.635,2.5,2.5,0,0,1,.441-.953,10.739,10.739,0,0,1,1.041-1.165,6.871,6.871,0,0,0,1.341-1.747,3.845,3.845,0,0,0,.388-1.712,3.446,3.446,0,0,0-1.076-2.612,4,4,0,0,0-2.876-1.024,4.819,4.819,0,0,0-2.276.547,4.385,4.385,0,0,0-1.676,1.535.655.655,0,0,0-.071.653.982.982,0,0,0,.529.512.876.876,0,0,0,.6,0,1.077,1.077,0,0,0,.529-.388,2.344,2.344,0,0,1,.971-.829,3.077,3.077,0,0,1,1.288-.265,2.476,2.476,0,0,1,1.659.512,1.7,1.7,0,0,1,.6,1.359,2.751,2.751,0,0,1-.388,1.359,9.2,9.2,0,0,1-1.376,1.712,8.582,8.582,0,0,0-1.059,1.288,2.806,2.806,0,0,0-.388,1.218.758.758,0,0,0,.212.618A.83.83,0,0,0,132.176,191.565Z" transform="translate(-120 -176)"/>
</svg>
