<svg xmlns="http://www.w3.org/2000/svg" width="24.178" height="24.178" viewBox="0 0 24.178 24.178">
  <path id="badge_FILL0_wght400_GRAD0_opsz48" d="M81.813,200.178A1.859,1.859,0,0,1,80,198.364V183.858a1.859,1.859,0,0,1,1.813-1.813h7.163v-4.231A1.859,1.859,0,0,1,90.789,176h2.629a1.859,1.859,0,0,1,1.813,1.813v4.231h7.132a1.859,1.859,0,0,1,1.813,1.813v14.507a1.859,1.859,0,0,1-1.813,1.813Zm0-1.813h20.551V183.858H95.232a1.666,1.666,0,0,1-.559,1.33,2.072,2.072,0,0,1-1.405.484H90.91a2.029,2.029,0,0,1-1.375-.484,1.666,1.666,0,0,1-.559-1.33H81.813Zm2.78-3.234h7.223v-.423a1.749,1.749,0,0,0-.272-.967,1.365,1.365,0,0,0-.7-.574,12.128,12.128,0,0,0-1.511-.438,5.537,5.537,0,0,0-1.058-.106,5.988,5.988,0,0,0-1.224.136,13.345,13.345,0,0,0-1.466.408,1.354,1.354,0,0,0-.725.574,1.749,1.749,0,0,0-.272.967Zm10.155-2.025h5.138v-1.511H94.748Zm-6.468-1.511a1.625,1.625,0,1,0-1.156-.476A1.574,1.574,0,0,0,88.281,191.595Zm6.468-1.9h5.138V188.18H94.748Zm-3.959-5.833h2.629v-6.044H90.789ZM92.089,191.111Z" transform="translate(-80 -176)"/>
</svg>
