<svg xmlns="http://www.w3.org/2000/svg" width="18.459" height="20.51" viewBox="0 0 18.459 20.51">
  <path id="event_FILL0_wght400_GRAD0_opsz48" d="M132.224,192.921a2.459,2.459,0,1,1,1.769-.718A2.39,2.39,0,0,1,132.224,192.921Zm-10.686,3.589A1.577,1.577,0,0,1,120,194.972v-15.9a1.577,1.577,0,0,1,1.538-1.538H123.2V176h1.666v1.538h8.717V176h1.666v1.538h1.666a1.577,1.577,0,0,1,1.538,1.538v15.9a1.577,1.577,0,0,1-1.538,1.538Zm0-1.538h15.383V183.948H121.538Zm0-12.562h15.383v-3.333H121.538Zm0,0v0Z" transform="translate(-120 -176)"/>
</svg>
