<svg id="Group_4064" data-name="Group 4064" xmlns="http://www.w3.org/2000/svg" xmlns:xlink="http://www.w3.org/1999/xlink" width="55.872" height="75.341" viewBox="0 0 55.872 75.341">
  <defs>
    <clipPath id="clip-path">
      <rect id="Rectangle_1532" data-name="Rectangle 1532" width="55.872" height="75.341" fill="none"/>
    </clipPath>
  </defs>
  <g id="Group_4063" data-name="Group 4063" clip-path="url(#clip-path)">
    <path id="Path_84640" data-name="Path 84640" d="M137.445,65.381h-6.128a.733.733,0,0,1-.731-.731V53.687a.733.733,0,0,1,.731-.731h6.128a.733.733,0,0,1,.731.731V64.65a.733.733,0,0,1-.731.731" transform="translate(-82.867 -33.605)" fill="#ed218c"/>
    <path id="Path_84641" data-name="Path 84641" d="M136.7,63.826h-6.014c-.175,0-.354-.01-.529,0-.092.005,0,0-.007.008.042-.02,0,.106.021.011a1.706,1.706,0,0,0,0-.359V52.792a.992.992,0,0,0,0-.315c-.021-.043,0,.1-.062.046.015.011.072,0,.09,0a6.1,6.1,0,0,0,.644,0h5.611c.066,0,.133,0,.2,0,.085-.005,0,0,.007-.008-.061.037,0-.112-.021-.019a.7.7,0,0,0,0,.154V63.762a.341.341,0,0,0,0,.1c.016.037,0-.035.063-.041a.576.576,0,0,0-.561.561.566.566,0,0,0,.561.561,1.089,1.089,0,0,0,1.06-1.082c0-.118,0-.238,0-.357V52.6a1.122,1.122,0,0,0-1.167-1.2c-.609-.007-1.218,0-1.827,0-1.522,0-3.046-.025-4.568,0a1.123,1.123,0,0,0-1.15,1.208V63.534c0,.113,0,.226,0,.338a1.087,1.087,0,0,0,1.06,1.076c.443.022.893,0,1.336,0H136.7a.561.561,0,0,0,0-1.122" transform="translate(-81.889 -32.611)"/>
    <path id="Path_84642" data-name="Path 84642" d="M17.158,127.393H8.825a.733.733,0,0,1-.731-.731v-8.333a.733.733,0,0,1,.731-.731h8.333a.733.733,0,0,1,.731.731v8.333a.733.733,0,0,1-.731.731" transform="translate(-5.136 -74.625)" fill="#ed218c"/>
    <path id="Path_84643" data-name="Path 84643" d="M16.416,125.838H7.884c-.049,0-.222-.03-.264,0,.066-.048.041.09.062.048a.387.387,0,0,0,0-.128v-8.263a1.2,1.2,0,0,0,0-.371c.012.026-.12.022.006.042a3.238,3.238,0,0,0,.472,0h6.835a9.356,9.356,0,0,0,1.347,0c.137-.021,0-.012.012-.042a1.225,1.225,0,0,0,0,.371v8.245a.5.5,0,0,0,0,.133c.019.053-.009-.028.062-.034a.576.576,0,0,0-.561.561.566.566,0,0,0,.561.561,1.089,1.089,0,0,0,1.06-1.088c0-.14,0-.281,0-.421V118.34c0-.406.015-.816,0-1.223a1.086,1.086,0,0,0-1.061-1.075c-.1,0-.192,0-.288,0H11.645c-1.318,0-2.639-.026-3.957,0a1.127,1.127,0,0,0-1.128,1.24v8.475a1.117,1.117,0,0,0,1.141,1.2c2.816.05,5.636,0,8.452,0h.265a.561.561,0,0,0,0-1.122" transform="translate(-4.162 -73.631)"/>
    <path id="Path_84644" data-name="Path 84644" d="M56.724,25.824a24.287,24.287,0,1,0-48.575,0s-.006.2.007.588a24.344,24.344,0,0,0,.5,4.353c1.337,7.593,6.194,23.119,23.784,40.777,17.59-17.658,22.447-33.184,23.784-40.777a24.38,24.38,0,0,0,.5-4.353c.014-.385.007-.588.007-.588M32.437,39.3A13.629,13.629,0,1,1,46.065,25.675,13.629,13.629,0,0,1,32.437,39.3" transform="translate(-5.171 -0.975)"/>
    <path id="Path_84645" data-name="Path 84645" d="M56.313,24.849a24.849,24.849,0,0,0-49.7-.247,36.177,36.177,0,0,0,1.571,9.929,63.471,63.471,0,0,0,3.348,9.124,79.51,79.51,0,0,0,6.237,11.2A102.6,102.6,0,0,0,27.91,67.673q1.547,1.676,3.157,3.291a.57.57,0,0,0,.794,0,112.554,112.554,0,0,0,9.546-10.87,89.8,89.8,0,0,0,6.688-10A74.882,74.882,0,0,0,52.406,41.3a60.193,60.193,0,0,0,2.457-7.22,38.705,38.705,0,0,0,1.416-7.969c.021-.419.042-.842.033-1.262a.561.561,0,0,0-1.122,0,25.848,25.848,0,0,1-.6,5.449q-.267,1.394-.619,2.771a58.634,58.634,0,0,1-2.236,6.915,70.892,70.892,0,0,1-3.979,8.427,87.489,87.489,0,0,1-6.275,9.734,106.755,106.755,0,0,1-9.055,10.642q-.672.7-1.355,1.382h.794a107.99,107.99,0,0,1-10.977-12.8,84.632,84.632,0,0,1-7.023-11.448A66,66,0,0,1,9.951,36.5a57.43,57.43,0,0,1-1.842-7.436A23.733,23.733,0,1,1,54.98,21.641a24.344,24.344,0,0,1,.21,3.208.561.561,0,0,0,1.122,0" transform="translate(-4.198 0)"/>
    <path id="Path_84646" data-name="Path 84646" d="M49.986,56.018a12.958,12.958,0,1,1,2-.149,13.181,13.181,0,0,1-2,.149.561.561,0,0,0,0,1.122,14.226,14.226,0,0,0,8.18-2.6,14.19,14.19,0,0,0,5.477-15.46,14.191,14.191,0,0,0-26.575-2.006,14.371,14.371,0,0,0-.985,8.716,14.19,14.19,0,0,0,11.687,11.17,15.008,15.008,0,0,0,2.217.176.561.561,0,0,0,0-1.122" transform="translate(-22.72 -18.251)"/>
    <path id="Path_84647" data-name="Path 84647" d="M58.673,189.732c0,2.03-6.084,3.676-13.589,3.676S31.5,191.762,31.5,189.732s6.084-3.676,13.589-3.676,13.589,1.646,13.589,3.676" transform="translate(-19.986 -118.067)"/>
    <path id="Path_84648" data-name="Path 84648" d="M50.109,27.153a24.288,24.288,0,1,0-48.575,0s-.006.2.007.588a24.378,24.378,0,0,0,.5,4.353C3.374,39.686,8.231,55.212,25.821,72.87c17.59-17.658,22.448-33.184,23.784-40.777a24.379,24.379,0,0,0,.5-4.353c.013-.385.007-.588.007-.588M25.821,40.633A13.629,13.629,0,1,1,39.45,27,13.629,13.629,0,0,1,25.821,40.633" transform="translate(-0.972 -1.818)" fill="#faed24"/>
    <path id="Path_84649" data-name="Path 84649" d="M49.7,26.178A24.856,24.856,0,0,0,12.44,4.644,24.84,24.84,0,0,0,0,25.931,36.177,36.177,0,0,0,1.572,35.86,63.471,63.471,0,0,0,4.92,44.983a79.511,79.511,0,0,0,6.237,11.2A102.6,102.6,0,0,0,21.3,69q1.547,1.676,3.157,3.291a.57.57,0,0,0,.794,0,112.553,112.553,0,0,0,9.546-10.87,89.8,89.8,0,0,0,6.688-10,74.883,74.883,0,0,0,4.312-8.793,60.193,60.193,0,0,0,2.457-7.22,38.7,38.7,0,0,0,1.416-7.969c.021-.419.042-.842.033-1.262a.561.561,0,0,0-1.122,0,25.848,25.848,0,0,1-.6,5.449q-.267,1.394-.619,2.771a58.633,58.633,0,0,1-2.236,6.915,70.9,70.9,0,0,1-3.979,8.427,87.491,87.491,0,0,1-6.275,9.734,106.754,106.754,0,0,1-9.055,10.642q-.672.7-1.355,1.382h.794A107.991,107.991,0,0,1,14.269,58.7,84.632,84.632,0,0,1,7.246,47.253a66,66,0,0,1-3.91-9.426A57.43,57.43,0,0,1,1.493,30.39,23.738,23.738,0,0,1,34.046,4.3,23.761,23.761,0,0,1,48.365,22.97a24.345,24.345,0,0,1,.21,3.208.561.561,0,0,0,1.122,0" transform="translate(0 -0.844)"/>
    <path id="Path_84650" data-name="Path 84650" d="M43.37,57.347a12.958,12.958,0,1,1,2-.149,13.182,13.182,0,0,1-2,.149.561.561,0,0,0,0,1.122,14.227,14.227,0,0,0,8.18-2.6,14.189,14.189,0,0,0,5.477-15.46,14.191,14.191,0,0,0-26.575-2.006,14.374,14.374,0,0,0-.985,8.716,14.189,14.189,0,0,0,11.687,11.17,15.005,15.005,0,0,0,2.217.176.561.561,0,0,0,0-1.122" transform="translate(-18.521 -19.094)"/>
    <path id="Path_84651" data-name="Path 84651" d="M50.821,53.782A14.663,14.663,0,1,1,36.159,39.119,14.663,14.663,0,0,1,50.821,53.782" transform="translate(-13.641 -24.824)" fill="#29c3e8"/>
    <path id="Path_84652" data-name="Path 84652" d="M49.287,52.809a14.1,14.1,0,0,1-24.98,8.977,14.038,14.038,0,0,1-3.18-7.843,14.1,14.1,0,1,1,28.16-1.134.561.561,0,0,0,1.122,0,15.261,15.261,0,0,0-2.79-8.784,15.221,15.221,0,0,0-16.6-5.862,15.225,15.225,0,0,0-2.126,28.508,15.411,15.411,0,0,0,9.357,1.052A15.226,15.226,0,0,0,50.218,55.2a16.043,16.043,0,0,0,.19-2.393.561.561,0,0,0-1.122,0" transform="translate(-12.667 -23.851)"/>
    <path id="Path_84653" data-name="Path 84653" d="M37.966,42.931c-1.163,1.818-2.1,4.04-1.495,6.211a4.172,4.172,0,0,1,.251,1.7c-.076.582-.293,1.138-.406,1.713a2.814,2.814,0,0,0,.8,2.909,2.976,2.976,0,0,0,2.819.154,25.014,25.014,0,0,0,2.856-1.54,6.861,6.861,0,0,1,1.433-.6,3.584,3.584,0,0,1,.676-.127,1.2,1.2,0,0,1,.694.057c.258.183-.005.777-.086,1-.215.587-.428,1.174-.618,1.769a35.633,35.633,0,0,0-.949,3.6c-.127.611-.255,1.23-.33,1.85a1.939,1.939,0,0,0,.222,1.3c.739,1.105,2.073.184,2.683-.552a10.325,10.325,0,0,0,1.4-2.549,8.473,8.473,0,0,1,1.375-2.333,15.666,15.666,0,0,1,1.958-1.76,10.261,10.261,0,0,0,3.443-3.753,2.507,2.507,0,0,0-.206-2.809,7.7,7.7,0,0,0-1.884-1.09,2.145,2.145,0,0,1-.313-.209.687.687,0,0,1-.189-.244c-.12-.34.126-.649.349-.891A7.458,7.458,0,0,0,53.4,45.69a2.852,2.852,0,0,0,.429-1.319,1.449,1.449,0,0,0-.454-1.194.576.576,0,0,0-.794,0,.566.566,0,0,0,0,.794c.1.088.12.123.125.217a1.326,1.326,0,0,1-.068.491,2.061,2.061,0,0,1-.619.894c-.649.624-1.328,1.436-.979,2.4a2.645,2.645,0,0,0,1.562,1.35c.54.25,1.244.481,1.309,1.1a3.4,3.4,0,0,1-.859,2.154,10.653,10.653,0,0,1-1.722,1.66,15.44,15.44,0,0,0-3.606,3.475,21.27,21.27,0,0,0-1.18,2.461,4.361,4.361,0,0,1-1.531,2.054.585.585,0,0,1-.23.088c.038,0-.019-.029-.012-.016a.882.882,0,0,1-.055-.407A9.8,9.8,0,0,1,44.98,60.3q.35-1.738.872-3.434.261-.847.563-1.681a5.08,5.08,0,0,0,.4-1.445,1.4,1.4,0,0,0-.648-1.3,2.4,2.4,0,0,0-1.533-.18,7.94,7.94,0,0,0-2.9,1.128,10.662,10.662,0,0,1-2.581,1.306c-.775.2-1.6.053-1.782-.842-.2-1.018.376-2.059.477-3.062.111-1.1-.508-2.088-.47-3.182a7.125,7.125,0,0,1,.829-2.829,13.329,13.329,0,0,1,.725-1.278c.39-.61-.581-1.174-.969-.566" transform="translate(-22.989 -27.077)"/>
    <path id="Path_84654" data-name="Path 84654" d="M74.469,81.96a6.176,6.176,0,0,0-2.5,3.114,5.126,5.126,0,0,0-.663,2.193c.028.846.59,1.656,1.522,1.475a3.62,3.62,0,0,0,1.615-1.109,4.1,4.1,0,0,1,1.721-.668A2.173,2.173,0,0,0,77.6,85.683a2.88,2.88,0,0,0,.034-1.863,3,3,0,0,0-1.445-1.83,1.9,1.9,0,0,0-2.221.339c-.49.53.3,1.325.794.794.691-.747,1.6.354,1.791,1a1.779,1.779,0,0,1-.007,1.2,1.213,1.213,0,0,1-.934.637,4.427,4.427,0,0,0-1.534.543c-.4.278-.7.669-1.088.953-.072.052-.359.242-.412.223-.167-.059-.153-.478-.141-.6a5.085,5.085,0,0,1,.542-1.514,5.194,5.194,0,0,1,2.057-2.632c.638-.34.071-1.309-.566-.969" transform="translate(-45.251 -51.896)"/>
    <path id="Path_84655" data-name="Path 84655" d="M26.842,97.752a2.846,2.846,0,0,1,2.556.559,9.14,9.14,0,0,0,1.791,1.9c1.5.889,3.638.212,4.893,1.563A4.845,4.845,0,0,1,36.861,103c.1.216.2.436.289.657a1.485,1.485,0,0,1,.208.745c-.144.7.937,1.006,1.082.3a2.809,2.809,0,0,0-.356-1.7,8.762,8.762,0,0,0-.667-1.323,3.9,3.9,0,0,0-2.4-1.764c-.929-.224-1.913-.174-2.823-.481s-1.328-1.184-1.939-1.858a2.928,2.928,0,0,0-1.471-.907,5.787,5.787,0,0,0-1.939-.046.577.577,0,0,0-.561.561.565.565,0,0,0,.561.561" transform="translate(-16.677 -61.282)"/>
    <path id="Path_84656" data-name="Path 84656" d="M26.8,58.767a14.538,14.538,0,0,0-1.169,12.36.576.576,0,0,0,.69.392.566.566,0,0,0,.392-.69,13.451,13.451,0,0,1,1.056-11.495.562.562,0,0,0-.969-.566" transform="translate(-15.714 -37.122)" fill="#fff"/>
    <path id="Path_84657" data-name="Path 84657" d="M68.427,109.115a17.433,17.433,0,0,0,5.026-2.566.578.578,0,0,0,.2-.768.565.565,0,0,0-.768-.2,16.5,16.5,0,0,1-4.757,2.453.573.573,0,0,0-.392.69.567.567,0,0,0,.69.392" transform="translate(-42.971 -66.946)" fill="#fff"/>
    <path id="Path_84658" data-name="Path 84658" d="M87.15,100.272h-.111a.576.576,0,0,0-.561.561c.007.05.013.1.02.149a.559.559,0,0,0,.144.248l.114.088a.556.556,0,0,0,.283.076h.111a.624.624,0,0,0,.4-.164.629.629,0,0,0,.164-.4c-.007-.05-.014-.1-.02-.149a.56.56,0,0,0-.144-.247l-.114-.088a.558.558,0,0,0-.283-.077" transform="translate(-54.877 -63.63)" fill="#fff"/>
    <path id="Path_84659" data-name="Path 84659" d="M76.122,67.687a7.7,7.7,0,0,0,2.089-1.965.565.565,0,0,0,.057-.433.573.573,0,0,0-.258-.335.567.567,0,0,0-.433-.056.648.648,0,0,0-.335.258c-.031.043-.062.087-.1.129.027-.033.073-.094.019-.025l-.05.062c-.067.083-.137.164-.208.244q-.208.233-.437.447a5.03,5.03,0,0,1-.476.406c.034-.025.094-.072.024-.02l-.064.048-.13.093c-.088.061-.177.12-.267.178a.561.561,0,1,0,.566.969" transform="translate(-47.768 -41.169)" fill="#fff"/>
    <path id="Path_84660" data-name="Path 84660" d="M17.971,16.786H11.843a.733.733,0,0,1-.731-.731V5.092a.733.733,0,0,1,.731-.731h6.128a.733.733,0,0,1,.731.731V16.055a.733.733,0,0,1-.731.731" transform="translate(-7.051 -2.767)" fill="#ed218c"/>
    <path id="Path_84661" data-name="Path 84661" d="M17.225,15.231H11.211c-.175,0-.354-.01-.529,0-.092.005,0,0-.007.008.042-.02,0,.106.021.011a1.707,1.707,0,0,0,0-.359V4.2a.992.992,0,0,0,0-.315c-.021-.043,0,.1-.062.046.015.011.072,0,.09,0a6.1,6.1,0,0,0,.644,0h5.611c.066,0,.133,0,.2,0,.085-.005,0,0,.007-.008-.06.037,0-.112-.021-.019a.7.7,0,0,0,0,.154V15.167a.341.341,0,0,0,0,.1c.016.037,0-.035.062-.041a.576.576,0,0,0-.561.561.566.566,0,0,0,.561.561,1.089,1.089,0,0,0,1.06-1.082c0-.118,0-.238,0-.357V4.006a1.122,1.122,0,0,0-1.167-1.2c-.609-.007-1.218,0-1.827,0-1.522,0-3.046-.025-4.568,0a1.123,1.123,0,0,0-1.15,1.208V14.939c0,.113,0,.226,0,.338a1.087,1.087,0,0,0,1.06,1.076c.443.022.893,0,1.336,0h5.256a.561.561,0,0,0,0-1.122" transform="translate(-6.073 -1.773)"/>
    <path id="Path_84662" data-name="Path 84662" d="M42.617,39.259h-3.6a.367.367,0,0,1-.365-.365v-6.9a.367.367,0,0,1,.365-.365h3.6a.366.366,0,0,1,.365.365v6.9a.366.366,0,0,1-.365.365" transform="translate(-24.526 -20.069)" fill="#ed218c"/>
    <path id="Path_84663" data-name="Path 84663" d="M41.752,37.694H38.219c-.056,0-.243-.034-.29,0,.128-.092.251.5.3.228a4.511,4.511,0,0,0,0-.744V31.539a2.138,2.138,0,0,0,0-.633c-.03-.073.239-.274-.155.122-.277.277-.2.132-.095.155a1.868,1.868,0,0,0,.394,0H41.21a3.357,3.357,0,0,0,.441,0c.019,0,.073.011.089,0-.041.03-.255-.377-.3-.294a1.748,1.748,0,0,0,0,.576v4.312c0,.7-.032,1.411,0,2.112.013.283-.067-.138.163-.175a.565.565,0,0,0-.392.69.575.575,0,0,0,.69.392c.881-.143.661-1.415.661-2.049V31.006a.861.861,0,0,0-.819-.945c-.317-.018-.641,0-.959,0-.935,0-1.879-.038-2.814,0a.853.853,0,0,0-.865.887c-.008.278,0,.558,0,.836v5.9a1.116,1.116,0,0,0,.267.918c.3.278.757.213,1.132.213h3.247a.561.561,0,0,0,0-1.122" transform="translate(-23.545 -19.065)"/>
    <path id="Path_84664" data-name="Path 84664" d="M93.473,107.513H87.345a.733.733,0,0,1-.731-.731v-6.6a.733.733,0,0,1,.731-.731h6.128a.733.733,0,0,1,.731.731v6.6a.733.733,0,0,1-.731.731" transform="translate(-54.963 -63.11)" fill="#ed218c"/>
    <path id="Path_84665" data-name="Path 84665" d="M92.725,105.958H86.656c-.142,0-.292-.013-.433,0-.177.016.022-.012-.028.061.024-.036,0-.178,0-.219V99.24a.828.828,0,0,0,0-.272c.023.041-.122.045-.008.051s.256,0,.383,0h5.895c.049,0,.21.028.253,0-.065.043-.035-.138-.056.008a2.785,2.785,0,0,0,0,.375v5.4c0,.369-.032.755,0,1.122.014.153-.028.046.062.038a.576.576,0,0,0-.561.561.566.566,0,0,0,.561.561,1.091,1.091,0,0,0,1.06-1.063c0-.085,0-.17,0-.255v-5.583c0-.384.007-.768,0-1.152A1.1,1.1,0,0,0,92.657,97.9c-1.085-.022-2.174,0-3.259,0-1.069,0-2.141-.025-3.21,0a1.1,1.1,0,0,0-1.115,1.138c-.007.4,0,.8,0,1.194v5.559c0,.077,0,.155,0,.232a1.086,1.086,0,0,0,1.061,1.06c.918.046,1.85,0,2.769,0h3.823a.561.561,0,0,0,0-1.122" transform="translate(-53.983 -62.116)"/>
    <path id="Path_84666" data-name="Path 84666" d="M72.385,139.313H68.05a.366.366,0,0,1-.365-.365v-6.9a.366.366,0,0,1,.365-.365h4.335a.366.366,0,0,1,.365.365v6.9a.366.366,0,0,1-.365.365" transform="translate(-42.951 -83.561)" fill="#ed218c"/>
    <path id="Path_84667" data-name="Path 84667" d="M71.5,137.746H67.132c-.2,0-.263-.061-.046.156.2.2.155.19.155.022v-6.707a.891.891,0,0,0,0-.253c-.03-.077.212-.251-.155.117-.278.278-.2.131-.1.155a1.733,1.733,0,0,0,.375,0h3.092a6.083,6.083,0,0,0,.986,0c.214-.037-.224-.471-.259-.267a1.6,1.6,0,0,0,0,.262v4.334c0,.787-.033,1.582,0,2.368.012.293-.064-.13.163-.167a.565.565,0,0,0-.392.69.575.575,0,0,0,.69.392c.545-.089.661-.587.661-1.045v-4.68c0-.725.041-1.464,0-2.188a.823.823,0,0,0-.736-.812,2.776,2.776,0,0,0-.292-.01h-1.39c-.966,0-1.941-.04-2.906,0a.858.858,0,0,0-.864.91c-.007.315,0,.631,0,.946,0,2-.039,3.994,0,5.989a.856.856,0,0,0,.857.91c.366.014.735,0,1.1,0H71.5a.561.561,0,0,0,0-1.122" transform="translate(-41.946 -82.556)"/>
    <path id="Path_84668" data-name="Path 84668" d="M104.259,7.33H99.924a.367.367,0,0,1-.365-.365V2.629a.367.367,0,0,1,.365-.365h4.335a.367.367,0,0,1,.365.365V6.964a.367.367,0,0,1-.365.365" transform="translate(-63.178 -1.437)" fill="#ed218c"/>
    <path id="Path_84669" data-name="Path 84669" d="M103.395,5.769H99.014c-.021,0-.163-.017-.179,0,.064-.068.366.244.305.3.007-.007,0-.052,0-.061a2.777,2.777,0,0,0,0-.292V2.172a3.443,3.443,0,0,0,0-.632c0-.006,0-.014,0-.019.045.156-.095.216-.2.259-.242.1-.117.034-.076.046a.947.947,0,0,0,.245,0h3.5a4.86,4.86,0,0,0,.733,0c.008,0,.045.006.051,0-.07.076-.35-.245-.305-.3-.021.026,0,.165,0,.2v2.2c0,.682-.036,1.376,0,2.057a.267.267,0,0,0,0,.075c.03.071.064-.253.163-.266a.565.565,0,0,0-.392.69.577.577,0,0,0,.69.392.819.819,0,0,0,.661-.8c0-.069,0-.14,0-.21V2.136c0-.2.011-.412,0-.615A.86.86,0,0,0,103.26.7h-2.324c-.69,0-1.388-.033-2.077,0a.847.847,0,0,0-.841.881c-.006.28,0,.561,0,.84V5.149c0,.284-.007.57,0,.854a.848.848,0,0,0,.841.888c.68.033,1.37,0,2.052,0h2.485a.562.562,0,0,0,0-1.123" transform="translate(-62.197 -0.437)"/>
    <path id="Path_84670" data-name="Path 84670" d="M104.283,22.185c4.223,2.661,6.608,7.5,7.514,12.277a24.485,24.485,0,0,1,.417,4.508.561.561,0,0,0,1.122,0c-.011-5.371-1.655-10.987-5.286-15.043a15.151,15.151,0,0,0-3.2-2.711c-.613-.386-1.177.585-.566.969" transform="translate(-66.009 -13.407)"/>
    <path id="Path_84671" data-name="Path 84671" d="M124.79,77.383l-.411,1.887a.561.561,0,0,0,1.082.3l.411-1.887a.561.561,0,1,0-1.082-.3" transform="translate(-78.92 -48.847)"/>
  </g>
</svg>
