<svg xmlns="http://www.w3.org/2000/svg" xmlns:xlink="http://www.w3.org/1999/xlink" version="1.1" width="133pt" height="73pt" viewBox="0 0 133 73">
<defs>
<clipPath id="clip_0">
<path transform="matrix(.25,0,0,.25,0,0)" d="M0 158.89136 489.0172 .000030517579 531.9778 132.2191 42.960584 291.1104 0 158.89136Z"/>
</clipPath>
<clipPath id="clip_1">
<path transform="matrix(.25,0,0,.25,0,0)" d="M0 0H532V292H0Z"/>
</clipPath>
</defs>
<g>
<g clip-path="url(#clip_0)">
<g>
<g clip-path="url(#clip_1)">
<path transform="matrix(.95105656,-.309017,.309017,.95105656,4.094223,42.00699)" d="M116.245 30.310025H8.042355C3.619059 30.310025-.000000000000016935807 26.690966-.0000000000000023963022 22.267672L.00000000000004436272 8.042355C.00000000000005890221 3.6190599 3.619059 .000000000000361384 8.042355 .00000000000034669965L116.245-.000000000000012508601C120.66829-.000000000000027192938 124.28735 3.6190599 124.28735 8.042355V22.267672C124.28735 26.690966 120.66829 30.310025 116.245 30.310025"/>
<path transform="matrix(.95105656,-.309017,.309017,.95105656,2.8079377,41.34665)" d="M117.26427 30.33024H101.39992 65.974147 29.399127 9.470172C7.497383 30.33024 5.633969 29.756014 4.186345 28.35423 2.7926059 27.004727 2.052709 25.192784 2.0245608 23.260205 2.0141059 22.517893 2.0245608 21.774785 2.0245608 21.032475V11.957481C2.0245608 9.340498 1.8347612 6.749252 3.6467036 4.581837 5.0895016 2.8559488 7.151561 2.037237 9.366427 2.0308035 10.116778 2.0283905 10.867932 2.0308035 11.618284 2.0308035H21.548983 55.552865 93.11227 115.92841C116.37074 2.0308035 116.813899 2.0235649 117.25621 2.0308035 121.147899 2.0887085 124.245029 5.213163 124.30132 9.100837 124.36967 13.784703 124.33027 18.479027 124.30132 23.163697 124.276378 27.085148 121.209049 30.261879 117.26427 30.33024 115.97185 30.352759 115.96783 32.36335 117.26427 32.34083 121.88861 32.260408 125.809268 28.76439 126.26847 24.129586 126.48562 21.940457 126.31192 19.666077 126.31192 17.470515 126.31192 14.785978 126.31835 12.101438 126.31192 9.416902 126.30307 5.6394069 124.26593 2.19728 120.71524 .7166823 118.55184-.18567007 116.14316 .02021423 113.84787 .02021423H102.702777 66.97703 29.23828C22.606554 .02021423 15.974024-.0015001379 9.3422989 .02021423 6.8829467 .027452354 4.54986 .8558149 2.764457 2.584117 1.1527695 4.1451375 .18929516 6.2747528 .033273493 8.50731-.018197472 9.252836 .013972026 10.010427 .013972026 10.756759V19.896893C.013972026 22.394043-.18547842 24.90004 .9227581 27.226696 2.425874 30.382515 5.6814196 32.298208 9.132393 32.34083 9.713053 32.34807 10.294515 32.34083 10.875173 32.34083H20.365956 54.558027 92.94177 116.16406 117.26427C118.55828 32.34083 118.559879 30.33024 117.26427 30.33024"/>
<path transform="matrix(.95105656,-.309017,.309017,.95105656,1.2857819,40.38263)" d="M116.244998 30.31083H8.042355C3.6190599 30.31083-.000000000000016934532 26.69177-.0000000000000023950348 22.268473L.000000000000044366628 8.042355C.00000000000005890612 3.619059 3.6190599-.0000000000000005941687 8.042355-.0000000000000008654434L116.244998 .00080417856C120.66829 .00080417856 124.28735 3.619864 124.28735 8.043159V22.268473C124.28735 26.69177 120.66829 30.31083 116.244998 30.31083" fill="#faed24"/>
<path transform="matrix(.95105656,-.309017,.309017,.95105656,-.00024414063,39.723054)" d="M117.264247 30.33024H101.39992 65.974147 29.399127 9.470171C7.4973828 30.33024 5.6339695 29.756014 4.1863458 28.354229 2.7926057 27.004727 2.052709 25.192784 2.0245608 23.260207 2.0141056 22.517899 2.0245608 21.774785 2.0245608 21.032475V11.957481C2.0245608 9.340499 1.834761 6.749252 3.6467033 4.581837 5.0895025 2.8559488 7.151562 2.037237 9.3664259 2.0299988 10.116776 2.0283907 10.867931 2.0308035 11.618284 2.0308035H21.548983 55.55286 93.11227 115.92843C116.37076 2.0308035 116.813899 2.023565 117.25622 2.0308035 121.147899 2.0879038 124.24503 5.2131626 124.30132 9.100837 124.36968 13.784703 124.33027 18.479027 124.30132 23.163697 124.276378 27.085152 121.20903 30.261879 117.264247 30.33024 115.97185 30.352755 115.96783 32.36335 117.264247 32.34083 121.88861 32.260408 125.809268 28.76439 126.26847 24.129586 126.48563 21.940457 126.31192 19.666077 126.31192 17.470515 126.31192 14.785976 126.31834 12.101438 126.31192 9.4169 126.30307 5.6394069 124.26594 2.1972802 120.71524 .7166823 118.55184-.18566984 116.14317 .020214465 113.84787 .020214465H102.702777 66.97703 29.23828C22.60655 .020214465 15.974022-.0014998934 9.3422989 .019410229 6.8829467 .027452587 4.5498597 .85581508 2.7644573 2.5841172 1.1527693 4.1451375 .18929534 6.2747528 .033273665 8.507311-.018197399 9.252837 .013972017 10.0104269 .013972017 10.756757V19.896893C.013972017 22.394043-.18547838 24.900042 .92275807 27.226696 2.425874 30.382515 5.6814196 32.298208 9.132393 32.34083 9.713053 32.348066 10.294515 32.34083 10.875173 32.34083H20.365952 54.558027 92.94177 116.16408 117.264247C118.55829 32.34083 118.55988 30.33024 117.264247 30.33024"/>
</g>
</g>
</g>
<path transform="matrix(.95105656,-.309017,.309017,.95105656,29.110199,52.49408)" d="M.028-9.632H3.192L4.6759998-3.626 6.16-9.632H9.464L6.454 0H2.884L.028-9.632ZM10.318-9.632H13.552V0H10.318V-9.632ZM15.372-9.632H22.133999V-7.504H18.774V-5.754H21.84V-3.99H18.774V-2.128H22.133999V0H15.372V-9.632ZM23.086-9.632H26.236L27.146-3.486 28.084-7.9939997H31.346L32.298-3.486 33.208-9.632H36.358L34.174 0H30.911999L29.722-5.1800005 28.532 0H25.27L23.086-9.632ZM40.18-9.632H43.33V-5.796H46.312V-9.632H49.475999V0H46.312V-3.7800003H43.33V0H40.18V-9.632ZM51.296-9.632H58.058004V-7.504H54.698V-5.754H57.764V-3.99H54.698V-2.128H58.058004V0H51.296V-9.632ZM66.92 .224C65.16533 .224 64.092-.58800008 63.7-2.2120002L63.35-3.654H62.692V0H59.626V-9.632H63.868C64.67067-9.632 65.37767-9.5130009 65.989-9.275001 66.600337-9.037001 67.074-8.703334 67.41-8.274 67.746-7.844667 67.914-7.35 67.914-6.79 67.914-6.1646668 67.76233-5.639667 67.459-5.215 67.15567-4.7903335 66.68667-4.4426667 66.052-4.172 66.11733-3.8173333 66.192-3.4953333 66.276-3.206 66.388-2.8513334 66.542-2.604 66.738-2.464 66.934-2.324 67.218669-2.254 67.592-2.254 67.722667-2.254 67.928-2.2726668 68.208-2.3100003V-.028C67.76933 .14000002 67.34 .224 66.92 .224ZM63.224-5.614C63.914667-5.614 64.402339-5.691 64.687-5.845 64.971668-5.9989998 65.114-6.2626669 65.114-6.636 65.114-6.953334 64.99733-7.184334 64.764-7.3290007 64.53067-7.4736669 64.162-7.5459997 63.658-7.5459997H62.692V-5.614H63.224ZM69.398-9.632H76.159999V-7.504H72.799999V-5.754H75.866V-3.99H72.799999V-2.128H76.159999V0H69.398V-9.632Z"/>
</g>
</svg>
