<svg xmlns="http://www.w3.org/2000/svg" width="21.283" height="21.283" viewBox="0 0 21.283 21.283">
  <g id="Group_3161" data-name="Group 3161" transform="translate(-0.555 -0.555)">
    <g id="Group_3167" data-name="Group 3167" transform="translate(1.555 1.555)">
      <path id="Path_83099" data-name="Path 83099" d="M22.144,5.705l3.2-3.2a3.236,3.236,0,0,1,4.576,0l.915.915a3.236,3.236,0,0,1,0,4.576L25.8,13.026a3.236,3.236,0,0,1-4.576,0l-.915-.915" transform="translate(-12.503 -1.555)" fill="none" stroke="#000" stroke-linecap="round" stroke-linejoin="round" stroke-width="2"/>
      <path id="Path_83100" data-name="Path 83100" d="M11.2,26.307l-3.2,3.2a3.236,3.236,0,0,1-4.576,0L2.5,28.6a3.236,3.236,0,0,1,0-4.576l5.033-5.033a3.236,3.236,0,0,1,4.576,0l.915.915" transform="translate(-1.555 -11.175)" fill="none" stroke="#000" stroke-linecap="round" stroke-linejoin="round" stroke-width="2"/>
    </g>
  </g>
</svg>
