<?xml version="1.0" encoding="UTF-8"?>
<svg xmlns="http://www.w3.org/2000/svg" xmlns:xlink="http://www.w3.org/1999/xlink" width="319pt" height="106pt" viewBox="0 0 319 106" version="1.1">
<g id="surface1">
<path style=" stroke:none;fill-rule:nonzero;fill:rgb(0%,0%,0%);fill-opacity:1;" d="M 7.300781 93.203125 L 7.300781 17.679688 C 7.300781 17.023438 7.367188 16.375 7.492188 15.730469 C 7.621094 15.085938 7.8125 14.460938 8.0625 13.855469 C 8.3125 13.25 8.621094 12.671875 8.988281 12.125 C 9.351563 11.578125 9.765625 11.074219 10.230469 10.609375 C 10.695313 10.144531 11.199219 9.730469 11.746094 9.367188 C 12.292969 9.003906 12.867188 8.695313 13.472656 8.441406 C 14.082031 8.191406 14.707031 8 15.351563 7.875 C 15.996094 7.746094 16.644531 7.679688 17.300781 7.679688 L 306.5 7.679688 C 307.15625 7.679688 307.808594 7.746094 308.449219 7.875 C 309.09375 8 309.71875 8.191406 310.328125 8.441406 C 310.933594 8.695313 311.507813 9.003906 312.054688 9.367188 C 312.601563 9.730469 313.105469 10.144531 313.570313 10.609375 C 314.035156 11.074219 314.449219 11.578125 314.816406 12.125 C 315.179688 12.671875 315.488281 13.25 315.738281 13.855469 C 315.988281 14.460938 316.179688 15.085938 316.308594 15.730469 C 316.4375 16.375 316.5 17.023438 316.5 17.679688 L 316.5 93.203125 C 316.5 93.859375 316.4375 94.511719 316.308594 95.152344 C 316.179688 95.796875 315.988281 96.421875 315.738281 97.03125 C 315.488281 97.636719 315.179688 98.210938 314.816406 98.757813 C 314.449219 99.304688 314.035156 99.808594 313.570313 100.273438 C 313.105469 100.738281 312.601563 101.152344 312.054688 101.515625 C 311.507813 101.882813 310.933594 102.191406 310.328125 102.441406 C 309.71875 102.691406 309.09375 102.882813 308.449219 103.011719 C 307.808594 103.140625 307.15625 103.203125 306.5 103.203125 L 17.300781 103.203125 C 16.644531 103.203125 15.996094 103.140625 15.351563 103.011719 C 14.707031 102.882813 14.082031 102.691406 13.472656 102.441406 C 12.867188 102.191406 12.292969 101.882813 11.746094 101.515625 C 11.199219 101.152344 10.695313 100.738281 10.230469 100.273438 C 9.765625 99.808594 9.351563 99.304688 8.988281 98.757813 C 8.621094 98.210938 8.3125 97.636719 8.0625 97.03125 C 7.8125 96.421875 7.621094 95.796875 7.492188 95.152344 C 7.367188 94.511719 7.300781 93.859375 7.300781 93.203125 Z M 7.300781 93.203125 "/>
<path style="fill:none;stroke-width:5;stroke-linecap:butt;stroke-linejoin:miter;stroke:rgb(0%,0%,0%);stroke-opacity:1;stroke-miterlimit:4;" d="M 2.499451 90.521484 L 2.499451 9.998047 C 2.499451 9.505859 2.546326 9.021484 2.643982 8.537109 C 2.741638 8.052734 2.882263 7.583984 3.069763 7.130859 C 3.26117 6.673828 3.491638 6.244141 3.765076 5.833984 C 4.038513 5.423828 4.347107 5.044922 4.694763 4.697266 C 5.046326 4.349609 5.425232 4.037109 5.831482 3.763672 C 6.241638 3.490234 6.675232 3.259766 7.128357 3.072266 C 7.585388 2.880859 8.054138 2.740234 8.538513 2.642578 C 9.018982 2.548828 9.507263 2.498047 9.999451 2.498047 L 304.198669 2.498047 C 304.690857 2.498047 305.179138 2.548828 305.663513 2.642578 C 306.143982 2.740234 306.612732 2.880859 307.069763 3.072266 C 307.522888 3.259766 307.956482 3.490234 308.366638 3.763672 C 308.776794 4.037109 309.151794 4.349609 309.503357 4.697266 C 309.851013 5.044922 310.159607 5.423828 310.433044 5.833984 C 310.706482 6.244141 310.940857 6.673828 311.128357 7.130859 C 311.315857 7.583984 311.460388 8.052734 311.554138 8.537109 C 311.651794 9.021484 311.698669 9.505859 311.698669 9.998047 L 311.698669 90.521484 C 311.698669 91.013672 311.651794 91.501953 311.554138 91.986328 C 311.460388 92.466797 311.315857 92.935547 311.128357 93.392578 C 310.940857 93.845703 310.706482 94.279297 310.433044 94.689453 C 310.159607 95.095703 309.851013 95.474609 309.503357 95.826172 C 309.151794 96.173828 308.776794 96.482422 308.366638 96.755859 C 307.956482 97.029297 307.522888 97.263672 307.069763 97.451172 C 306.612732 97.638672 306.143982 97.779297 305.663513 97.876953 C 305.179138 97.974609 304.690857 98.021484 304.198669 98.021484 L 9.999451 98.021484 C 9.507263 98.021484 9.018982 97.974609 8.538513 97.876953 C 8.054138 97.779297 7.585388 97.638672 7.128357 97.451172 C 6.675232 97.263672 6.241638 97.029297 5.831482 96.755859 C 5.425232 96.482422 5.046326 96.173828 4.694763 95.826172 C 4.347107 95.474609 4.038513 95.095703 3.765076 94.689453 C 3.491638 94.279297 3.26117 93.845703 3.069763 93.392578 C 2.882263 92.935547 2.741638 92.466797 2.643982 91.986328 C 2.546326 91.501953 2.499451 91.013672 2.499451 90.521484 Z M 2.499451 90.521484 " transform="matrix(1,0,0,1,4.80133,5.181641)"/>
<path style=" stroke:none;fill-rule:nonzero;fill:rgb(100%,100%,43.919373%);fill-opacity:1;" d="M 1 89.519531 L 1 11 C 1 10.34375 1.0625 9.691406 1.191406 9.050781 C 1.320313 8.40625 1.511719 7.78125 1.761719 7.171875 C 2.011719 6.566406 2.320313 5.992188 2.683594 5.445313 C 3.050781 4.898438 3.464844 4.394531 3.929688 3.929688 C 4.394531 3.464844 4.898438 3.050781 5.445313 2.683594 C 5.992188 2.320313 6.566406 2.011719 7.171875 1.761719 C 7.78125 1.511719 8.40625 1.320313 9.050781 1.191406 C 9.691406 1.0625 10.34375 1 11 1 L 303.199219 1 C 303.855469 1 304.503906 1.0625 305.148438 1.191406 C 305.792969 1.320313 306.417969 1.511719 307.027344 1.761719 C 307.632813 2.011719 308.207031 2.320313 308.753906 2.683594 C 309.300781 3.050781 309.804688 3.464844 310.269531 3.929688 C 310.734375 4.394531 311.148438 4.898438 311.511719 5.445313 C 311.878906 5.992188 312.1875 6.566406 312.4375 7.171875 C 312.6875 7.78125 312.878906 8.40625 313.007813 9.050781 C 313.132813 9.691406 313.199219 10.34375 313.199219 11 L 313.199219 89.519531 C 313.199219 90.179688 313.132813 90.828125 313.007813 91.472656 C 312.878906 92.117188 312.6875 92.742188 312.4375 93.347656 C 312.1875 93.953125 311.878906 94.53125 311.511719 95.078125 C 311.148438 95.621094 310.734375 96.128906 310.269531 96.59375 C 309.804688 97.054688 309.300781 97.472656 308.753906 97.835938 C 308.207031 98.199219 307.632813 98.507813 307.027344 98.761719 C 306.417969 99.011719 305.792969 99.199219 305.148438 99.328125 C 304.503906 99.457031 303.855469 99.519531 303.199219 99.519531 L 11 99.519531 C 10.34375 99.519531 9.691406 99.457031 9.050781 99.328125 C 8.40625 99.199219 7.78125 99.011719 7.171875 98.761719 C 6.566406 98.507813 5.992188 98.199219 5.445313 97.835938 C 4.898438 97.472656 4.394531 97.054688 3.929688 96.59375 C 3.464844 96.128906 3.050781 95.621094 2.683594 95.078125 C 2.320313 94.53125 2.011719 93.953125 1.761719 93.347656 C 1.511719 92.742188 1.320313 92.117188 1.191406 91.472656 C 1.0625 90.828125 1 90.179688 1 89.519531 Z M 1 89.519531 "/>
<path style="fill:none;stroke-width:2;stroke-linecap:butt;stroke-linejoin:miter;stroke:rgb(0%,0%,0%);stroke-opacity:1;stroke-miterlimit:4;" d="M 1 90.519531 L 1 10 C 1 9.410156 1.058594 8.824219 1.171875 8.246094 C 1.289063 7.664063 1.457031 7.101563 1.683594 6.554688 C 1.910156 6.011719 2.1875 5.492188 2.515625 5 C 2.84375 4.507813 3.21875 4.054688 3.636719 3.636719 C 4.054688 3.21875 4.507813 2.84375 5 2.515625 C 5.492188 2.1875 6.011719 1.910156 6.554688 1.683594 C 7.101563 1.457031 7.664063 1.289063 8.246094 1.171875 C 8.824219 1.058594 9.410156 1 10 1 L 304.199219 1 C 304.789063 1 305.375 1.058594 305.953125 1.171875 C 306.535156 1.289063 307.097656 1.457031 307.644531 1.683594 C 308.1875 1.910156 308.707031 2.1875 309.199219 2.515625 C 309.691406 2.84375 310.144531 3.21875 310.5625 3.636719 C 310.980469 4.054688 311.355469 4.507813 311.683594 5 C 312.011719 5.492188 312.289063 6.011719 312.511719 6.554688 C 312.738281 7.101563 312.910156 7.664063 313.027344 8.246094 C 313.140625 8.824219 313.199219 9.410156 313.199219 10 L 313.199219 90.519531 C 313.199219 91.113281 313.140625 91.699219 313.027344 92.277344 C 312.910156 92.855469 312.738281 93.417969 312.511719 93.964844 C 312.289063 94.511719 312.011719 95.03125 311.683594 95.519531 C 311.355469 96.011719 310.980469 96.46875 310.5625 96.886719 C 310.144531 97.304688 309.691406 97.675781 309.199219 98.003906 C 308.707031 98.332031 308.1875 98.609375 307.644531 98.835938 C 307.097656 99.0625 306.535156 99.234375 305.953125 99.347656 C 305.375 99.464844 304.789063 99.519531 304.199219 99.519531 L 10 99.519531 C 9.410156 99.519531 8.824219 99.464844 8.246094 99.347656 C 7.664063 99.234375 7.101563 99.0625 6.554688 98.835938 C 6.011719 98.609375 5.492188 98.332031 5 98.003906 C 4.507813 97.675781 4.054688 97.304688 3.636719 96.886719 C 3.21875 96.46875 2.84375 96.011719 2.515625 95.519531 C 2.1875 95.03125 1.910156 94.511719 1.683594 93.964844 C 1.457031 93.417969 1.289063 92.855469 1.171875 92.277344 C 1.058594 91.699219 1 91.113281 1 90.519531 Z M 1 90.519531 "/>
<path style=" stroke:none;fill-rule:nonzero;fill:rgb(14.898682%,63.529968%,77.648926%);fill-opacity:1;" d="M 300.238281 71.492188 C 302.269531 71.492188 303.917969 73.140625 303.917969 75.171875 L 303.917969 91.796875 L 287.292969 91.796875 C 285.261719 91.796875 283.613281 90.148438 283.613281 88.117188 C 283.613281 86.082031 285.261719 84.433594 287.292969 84.433594 L 296.554688 84.433594 L 296.554688 75.171875 C 296.554688 73.140625 298.203125 71.492188 300.238281 71.492188 "/>
<path style=" stroke:none;fill-rule:nonzero;fill:rgb(14.898682%,63.529968%,77.648926%);fill-opacity:1;" d="M 12.949219 30.335938 C 10.914063 30.335938 9.265625 28.6875 9.265625 26.65625 L 9.265625 10.03125 L 25.890625 10.03125 C 27.925781 10.03125 29.574219 11.679688 29.574219 13.710938 C 29.574219 15.746094 27.925781 17.390625 25.890625 17.390625 L 16.628906 17.390625 L 16.628906 26.65625 C 16.628906 28.6875 14.980469 30.335938 12.949219 30.335938 "/>
<path style=" stroke:none;fill-rule:nonzero;fill:rgb(0%,0%,0%);fill-opacity:1;" d="M 26.933594 33.476563 L 39.085938 33.476563 L 42.59375 57.183594 L 46.210938 39.796875 L 58.792969 39.796875 L 62.464844 57.183594 L 65.976563 33.476563 L 78.125 33.476563 L 69.703125 70.628906 L 57.121094 70.628906 L 52.53125 50.648438 L 47.941406 70.628906 L 35.359375 70.628906 Z M 81.152344 33.476563 L 107.230469 33.476563 L 107.230469 41.6875 L 94.273438 41.6875 L 94.273438 48.4375 L 106.097656 48.4375 L 106.097656 55.238281 L 94.273438 55.238281 L 94.273438 62.421875 L 107.230469 62.421875 L 107.230469 70.628906 L 81.152344 70.628906 Z M 111.660156 33.476563 L 123.324219 33.476563 L 123.324219 62.421875 L 136.230469 62.421875 L 136.230469 70.628906 L 111.660156 70.628906 Z M 155.617188 71.492188 C 152.015625 71.492188 148.75 70.640625 145.816406 68.929688 C 142.882813 67.21875 140.558594 64.878906 138.847656 61.910156 C 137.140625 58.9375 136.285156 55.652344 136.285156 52.054688 C 136.285156 48.382813 137.113281 45.070313 138.769531 42.117188 C 140.425781 39.164063 142.691406 36.851563 145.574219 35.179688 C 148.453125 33.503906 151.691406 32.667969 155.292969 32.667969 C 157.238281 32.667969 159.144531 32.902344 161.015625 33.371094 C 162.886719 33.835938 164.492188 34.503906 165.824219 35.367188 L 164.363281 43.738281 C 161.773438 42.765625 159.433594 42.28125 157.34375 42.28125 C 154.464844 42.28125 152.25 43.117188 150.703125 44.789063 C 149.15625 46.464844 148.378906 48.867188 148.378906 52 C 148.378906 55.058594 149.199219 57.445313 150.835938 59.15625 C 152.476563 60.863281 154.753906 61.71875 157.667969 61.71875 C 158.785156 61.71875 159.828125 61.613281 160.800781 61.394531 C 161.773438 61.179688 162.960938 60.785156 164.363281 60.207031 L 165.875 68.738281 C 162.746094 70.574219 159.324219 71.492188 155.617188 71.492188 Z M 186.449219 71.492188 C 182.5625 71.492188 179.117188 70.664063 176.109375 69.011719 C 173.101563 67.355469 170.761719 65.058594 169.089844 62.125 C 167.414063 59.191406 166.578125 55.851563 166.578125 52.109375 C 166.578125 48.328125 167.414063 44.960938 169.089844 42.011719 C 170.761719 39.058594 173.101563 36.761719 176.109375 35.125 C 179.117188 33.488281 182.5625 32.667969 186.449219 32.667969 C 190.339844 32.667969 193.785156 33.488281 196.792969 35.125 C 199.796875 36.761719 202.136719 39.050781 203.8125 41.984375 C 205.484375 44.917969 206.324219 48.292969 206.324219 52.109375 C 206.324219 55.851563 205.484375 59.191406 203.8125 62.125 C 202.136719 65.058594 199.789063 67.355469 196.765625 69.011719 C 193.742188 70.664063 190.300781 71.492188 186.449219 71.492188 Z M 186.449219 61.664063 C 188.71875 61.664063 190.582031 60.785156 192.039063 59.019531 C 193.496094 57.257813 194.226563 54.933594 194.226563 52.054688 C 194.226563 50.144531 193.894531 48.445313 193.226563 46.949219 C 192.5625 45.457031 191.632813 44.285156 190.445313 43.441406 C 189.257813 42.59375 187.910156 42.171875 186.394531 42.171875 C 184.921875 42.171875 183.589844 42.59375 182.402344 43.441406 C 181.210938 44.285156 180.292969 45.457031 179.644531 46.949219 C 179 48.445313 178.675781 50.144531 178.675781 52.054688 C 178.675781 54.933594 179.394531 57.257813 180.835938 59.019531 C 182.273438 60.785156 184.144531 61.664063 186.449219 61.664063 Z M 209.886719 33.476563 L 221.117188 33.476563 L 230.40625 51.515625 L 239.476563 33.476563 L 250.710938 33.476563 L 250.710938 70.628906 L 239.476563 70.628906 L 239.476563 50.8125 L 232.621094 63.773438 L 228.03125 63.773438 L 221.117188 50.8125 L 221.117188 70.628906 L 209.886719 70.628906 Z M 256.164063 33.476563 L 282.246094 33.476563 L 282.246094 41.6875 L 269.285156 41.6875 L 269.285156 48.4375 L 281.113281 48.4375 L 281.113281 55.238281 L 269.285156 55.238281 L 269.285156 62.421875 L 282.246094 62.421875 L 282.246094 70.628906 L 256.164063 70.628906 Z M 256.164063 33.476563 "/>
</g>
</svg>
